Coordinates
version=1
nRows=7
nColumns=40
inDegrees=yes

Units are S.I. units (second, meters, Newtons, ...)
Angles are in degrees.

endheader
time	pelvis_tilt	pelvis_list	pelvis_rotation	pelvis_tx	pelvis_ty	pelvis_tz	hip_flexion_r	hip_adduction_r	hip_rotation_r	knee_angle_r	knee_angle_r_beta	ankle_angle_r	subtalar_angle_r	mtp_angle_r	hip_flexion_l	hip_adduction_l	hip_rotation_l	knee_angle_l	knee_angle_l_beta	ankle_angle_l	subtalar_angle_l	mtp_angle_l	lumbar_extension	lumbar_bending	lumbar_rotation	arm_flex_r	arm_add_r	arm_rot_r	elbow_flex_r	pro_sup_r	wrist_flex_r	wrist_dev_r	arm_flex_l	arm_add_l	arm_rot_l	elbow_flex_l	pro_sup_l	wrist_flex_l	wrist_dev_l
     47.26300000	     -5.36251397	     -3.85038228	     -5.59722854	      0.94798931	      0.92567068	      0.45788709	     27.29519626	      0.78250598	    -13.14205976	     11.39298414	     11.39298414	      3.14537847	      9.17515266	      8.66205958	      2.78295520	     -5.10105308	    -12.43608945	     13.35695456	     13.35695456	     15.59949658	    -10.11162960	     -4.95811031	    -10.00544066	      5.42617272	      1.87063952	    -15.84016206	    -14.06938563	     -9.26504406	     24.28461759	     47.12483023	      0.00000000	      0.00000000	     20.26250578	    -23.53599542	    -14.45570950	     89.52674098	     47.91312887	      0.00000000	      0.00000000
     47.27600000	     -5.50498910	     -3.75719440	     -5.70647213	      0.94961261	      0.92415354	      0.46020934	     27.09189704	      0.95618301	    -13.54126700	     11.45914324	     11.45914324	      3.03944441	      8.97080543	      8.67590290	      2.31732906	     -5.09929985	    -12.49541294	     13.32794260	     13.32794260	     15.99645207	    -10.21575215	     -5.05878082	     -9.61047528	      5.38378634	      1.80251886	    -15.94124805	    -14.01197789	     -9.28042951	     24.27914942	     47.12458004	      0.00000000	      0.00000000	     20.37516773	    -23.53626569	    -14.49911770	     89.67490292	     47.92005436	      0.00000000	      0.00000000
     47.28900000	     -5.39130545	     -3.84434124	     -5.67947939	      0.95169612	      0.92303830	      0.46261181	     26.52519423	      1.22132604	    -14.00647671	     11.73628004	     11.73628004	      2.07699882	      8.59100773	      5.89295861	      1.42859422	     -5.29749542	    -12.75832385	     13.13753948	     13.13753948	     17.00351634	     -9.35944260	     -3.85098384	     -9.64574223	      5.49688450	      1.52399178	    -16.27651018	    -13.80190813	    -10.11812983	     25.30205578	     47.10876114	      0.00000000	      0.00000000	     19.94487931	    -23.08450646	    -15.82149224	     91.97777719	     48.08419813	      0.00000000	      0.00000000
     47.30200000	     -5.46718936	     -3.97309568	     -5.61156531	      0.95365261	      0.92172625	      0.46498072	     26.24049101	      1.47750642	    -14.27408862	     12.40354924	     12.40354924	      1.92347530	      8.09805403	      5.58762625	      0.84410303	     -5.54053832	    -12.60637429	     13.04203108	     13.04203108	     17.44673181	     -9.33825625	     -3.83688494	     -9.35628667	      5.74458034	      1.54014720	    -16.15319822	    -13.59462264	    -10.09633673	     25.30993237	     47.10478333	      0.00000000	      0.00000000	     20.01194429	    -22.81886991	    -15.78414010	     92.14149829	     48.08773521	      0.00000000	      0.00000000
     47.31500000	     -5.49811548	     -3.87028684	     -5.59575768	      0.95566404	      0.92033285	      0.46750106	     26.24299072	      1.51607736	    -13.75047261	     13.71279216	     13.71279216	      1.48944059	      6.57010236	      3.64090391	      0.30673295	     -5.56088226	    -12.58436845	     13.13990334	     13.13990334	     18.16938110	     -9.13514880	     -3.03270734	     -9.12495496	      5.69464210	      1.70660690	    -15.99922604	    -13.34131629	    -10.10274566	     25.27088344	     47.09517595	      0.00000000	      0.00000000	     20.11523245	    -22.22214083	    -15.99616365	     92.70550105	     48.12518038	      0.00000000	      0.00000000
     47.32800000	     -5.38528734	     -3.95077257	     -5.44214978	      0.95787160	      0.91928949	      0.47001867	     25.70475449	      1.77636850	    -13.27569564	     14.27929282	     14.27929282	     -0.04936121	      4.95661312	     -1.20734759	     -0.13387639	     -5.86791066	    -12.55002545	     13.81650579	     13.81650579	     19.64773083	     -8.56273109	     -0.71960151	     -9.04938891	      5.86470857	      1.44972357	    -15.41647611	    -13.23894285	    -10.12022192	     25.24667942	     47.05541658	      0.00000000	      0.00000000	     19.79274027	    -21.89176381	    -16.41556379	     93.08003187	     48.20545884	      0.00000000	      0.00000000
     47.34100000	     -5.25549294	     -4.07102644	     -5.27786368	      0.95992888	      0.91854820	      0.47245897	     25.41635536	      1.93161742	    -13.09816028	     15.44968832	     15.44968832	      0.20213653	      4.21744003	     -1.64364038	     -0.60689637	     -6.18115380	    -12.30747833	     14.32115164	     14.32115164	     19.92683111	     -8.81404541	     -0.69812905	     -9.03596312	      6.14192455	      1.47037373	    -14.92340014	    -13.10321447	    -10.07487149	     25.38559377	     47.04619341	      0.00000000	      0.00000000	     19.64276325	    -21.45312177	    -16.29675543	     93.04813151	     48.19987037	      0.00000000	      0.00000000
